<svg width="40" height="35" viewBox="0 0 40 35" fill="none" xmlns="http://www.w3.org/2000/svg">
<path d="M17.2506 19.172C17.4108 20.7883 17.4908 21.6463 16.1697 23.043C14.7886 24.4997 11.3257 27.1734 7.78278 29.2087C6.28153 30.0667 4.25986 31.1043 2.7386 31.663C1.59765 32.0621 0.656871 32.2417 0.176473 31.4236C-0.123776 30.8848 0.0163401 30.4059 0.176473 29.9869C1.4175 26.6546 4.96044 20.4291 7.28236 16.3785C7.52256 15.9795 7.76276 15.5405 8.00296 15.1215C11.5659 8.99569 16.2898 1.49313 17.2306 0.275963C17.3507 0.116334 17.6109 -0.083202 17.8311 0.0365198C18.0113 0.136288 18.0113 0.355778 17.9912 0.515407C17.9912 0.53536 17.9312 0.75485 17.9112 0.854618C16.3699 7.04024 16.55 13.1061 17.2506 19.172Z" fill="#00AEEF"/>
<path d="M23.0865 20.8809C21.5464 20.2022 20.7455 19.8429 20.191 18.0063C19.5955 16.0899 19 11.758 19 7.68562C19 5.96883 19.1027 3.69309 19.3902 2.09608C19.6161 0.918282 19.9446 0 20.9303 0C21.5464 0 21.8955 0.37929 22.2035 0.738618C24.5445 3.45354 28.2614 9.64196 30.6846 13.6545C30.931 14.0737 31.1774 14.4929 31.4238 14.9321C35.0586 21.0806 39.3299 28.9059 39.9254 30.3033C40.0076 30.5029 40.0692 30.8223 39.8433 30.9621C39.6379 31.0619 39.4531 30.9421 39.3299 30.8623C39.3094 30.8423 39.1451 30.6826 39.0629 30.6227C34.3398 26.191 28.8364 23.2964 23.0865 20.8809Z" fill="#00AEEF"/>
<path d="M18.7123 26.0546C20.1183 25.1975 20.8527 24.7511 22.8253 25.144C24.8609 25.5725 29.0998 27.0545 32.8351 28.8757C34.388 29.6435 36.4026 30.7326 37.7036 31.6611C38.669 32.3574 39.3195 33.0181 38.8368 33.7501C38.5011 34.2322 37.9974 34.3215 37.5148 34.3929C33.8424 34.9286 26.3088 34.9643 21.4193 35C20.9157 35 20.3911 35 19.8665 35C12.4168 34.9821 3.12048 34.6965 1.52562 34.5179C1.29479 34.4822 0.980012 34.3929 1.001 34.1608C1.001 33.9644 1.18986 33.8751 1.33676 33.8216C1.37873 33.8037 1.58858 33.7501 1.6935 33.7323C8.13587 32.1432 13.571 29.3042 18.7123 26.0546Z" fill="#00AEEF"/>
</svg>
